<svg width="90" height="89" viewBox="0 0 90 89" fill="none" xmlns="http://www.w3.org/2000/svg">
<path d="M88.8415 41.7327C87.437 18.5259 68.2408 0.144625 44.7309 0H44.2108C35.8976 0.055625 28.1324 2.36128 21.4963 6.38575C15.3621 10.0924 10.2099 15.2208 6.47478 21.3377C2.23114 28.3075 -0.00916096 36.3122 2.81551e-05 44.4722C2.81551e-05 45.3983 0.0445282 46.3273 0.0862469 47.2395C0.550716 54.671 2.81187 61.5936 6.47478 67.5899C10.1864 73.6989 15.3066 78.8306 21.4073 82.5558C28.2772 86.6744 36.126 88.8748 44.1357 88.9277H44.8032C68.3298 88.7692 87.4342 70.4296 88.8999 47.2534C88.9416 46.3551 89.0139 45.415 89.0139 44.5306C89.0139 43.6295 89.0139 42.6922 88.9388 41.805L88.8526 41.7188L88.8415 41.7327ZM44.5139 57.9724V72.1679C44.8616 80.8454 42.4002 82.2916 39.4298 82.4223C39.2991 82.4223 39.1823 82.4362 39.0516 82.4362C22.1638 80.0472 8.80547 66.661 6.47478 49.7288C6.23402 47.9813 6.1123 46.2195 6.11043 44.4555C6.11043 42.6755 6.24393 40.9205 6.47478 39.1962C8.79156 22.2945 22.1193 8.90556 39.0126 6.48866L39.4326 6.53316C42.403 6.68891 44.8644 8.12403 44.5167 16.7709V30.9664C44.4722 36.8071 47.832 42.3696 51.3947 44.4694C47.832 46.5526 44.4722 51.4225 44.5167 57.9557L44.5139 57.9724Z" fill="#008032"/>
<path d="M44.501 22.5L44.7891 22.5059C46.2262 22.5626 47.618 23.0386 48.791 23.8779C50.0405 24.7721 50.98 26.0338 51.4775 27.4873L52.1113 29.3311L52.1133 29.3359C53.2885 32.7789 55.9431 35.508 59.3418 36.7773L59.6729 36.8955L59.6748 36.8965L61.5137 37.5254H61.5146C62.9692 38.0237 64.2321 38.9638 65.126 40.2148C66.0199 41.4659 66.5 42.9654 66.5 44.5029C66.5 46.0404 66.0198 47.54 65.126 48.791C64.2326 50.0413 62.9701 50.98 61.5166 51.4785L59.6738 52.1133L59.6689 52.1152C56.1143 53.3283 53.3209 56.1178 52.1084 59.6738L52.1074 59.6758L51.4785 61.5146V61.5156C50.98 62.97 50.0391 64.2323 48.7881 65.126C47.537 66.0197 46.0375 66.5 44.5 66.5C42.9625 66.5 41.463 66.0197 40.2119 65.126C38.9609 64.2323 38.02 62.97 37.5215 61.5156V61.5146L36.8887 59.6748L36.8867 59.6699C36.288 57.9162 35.2959 56.3221 33.9854 55.0117C32.6747 53.7013 31.0803 52.7091 29.3262 52.1104L29.3252 52.1094L27.4863 51.4805H27.4854C26.0309 50.9821 24.7679 50.042 23.874 48.791C22.9802 47.54 22.5 46.0405 22.5 44.5029C22.5 42.9654 22.9801 41.4659 23.874 40.2148C24.7679 38.9638 26.0308 38.0237 27.4854 37.5254L29.3262 36.8926L29.3311 36.8906C32.8857 35.6776 35.6791 32.8881 36.8916 29.332L36.8926 29.3291L37.5215 27.4912C38.0187 26.0361 38.9584 24.7728 40.209 23.8779C41.4602 22.9826 42.9604 22.5006 44.499 22.5H44.501Z" fill="#5F6561" stroke="#F7F9F8" stroke-width="5"/>
</svg>
