<svg width="56" height="56" viewBox="0 0 56 56" fill="none" xmlns="http://www.w3.org/2000/svg">
<path d="M0 16.4C0 7.34253 7.34253 0 16.4 0H39.6C48.6575 0 56 7.34253 56 16.4V39.6C56 48.6575 48.6575 56 39.6 56H16.4C7.34253 56 0 48.6575 0 39.6V16.4Z" fill="#FDBA74"/>
<path d="M22.5334 38.6666C25.0782 39.9721 28.0055 40.3256 30.7879 39.6637C33.5703 39.0017 36.0248 37.3678 37.7091 35.0562C39.3934 32.7447 40.1966 29.9076 39.9742 27.0562C39.7517 24.2048 38.5182 21.5266 36.4958 19.5042C34.4735 17.4819 31.7953 16.2483 28.9439 16.0259C26.0925 15.8034 23.2554 16.6067 20.9438 18.291C18.6323 19.9752 16.9983 22.4297 16.3364 25.2121C15.6744 27.9945 16.028 30.9219 17.3334 33.4666L14.6667 41.3333L22.5334 38.6666Z" stroke="white" stroke-width="2.66667" stroke-linecap="round" stroke-linejoin="round"/>
</svg>
