<svg width="58" height="58" viewBox="0 0 58 58" fill="none" xmlns="http://www.w3.org/2000/svg">
<path d="M49.3536 24.5324H42.3959C36.6901 24.5324 32.0436 19.886 32.0436 14.1802V7.2225C32.0436 5.89838 30.9603 4.815 29.6361 4.815H19.4283C12.0132 4.815 6.01855 9.63 6.01855 18.2248V39.5552C6.01855 48.15 12.0132 52.965 19.4283 52.965H38.3513C45.7664 52.965 51.7611 48.15 51.7611 39.5552V26.9399C51.7611 25.6158 50.6777 24.5324 49.3536 24.5324ZM29.5639 37.9903L24.7489 42.8054C24.5804 42.9739 24.3637 43.1183 24.147 43.1906C23.9304 43.2869 23.7137 43.335 23.4729 43.335C23.2322 43.335 23.0155 43.2869 22.7988 43.1906C22.6062 43.1183 22.4136 42.9739 22.2692 42.8294C22.2451 42.8054 22.221 42.8054 22.221 42.7813L17.406 37.9663C16.7079 37.2681 16.7079 36.1125 17.406 35.4143C18.1042 34.7161 19.2598 34.7161 19.958 35.4143L21.6673 37.1718V27.0844C21.6673 26.0973 22.4859 25.2788 23.4729 25.2788C24.46 25.2788 25.2786 26.0973 25.2786 27.0844V37.1718L27.012 35.4384C27.7101 34.7402 28.8657 34.7402 29.5639 35.4384C30.2621 36.1366 30.2621 37.2922 29.5639 37.9903Z" fill="#CBCFCD"/>
<path d="M41.9629 21.2101C44.25 21.2341 47.4279 21.2341 50.1484 21.2341C51.5207 21.2341 52.2429 19.6211 51.2799 18.6581C47.8131 15.1672 41.6018 8.88367 38.0387 5.32057C37.0516 4.3335 35.3423 5.0076 35.3423 6.37987V14.782C35.3423 18.297 38.3276 21.2101 41.9629 21.2101Z" fill="#CBCFCD"/>
</svg>
