<svg width="56" height="56" viewBox="0 0 56 56" fill="none" xmlns="http://www.w3.org/2000/svg">
<path d="M0 16.4C0 7.34253 7.34253 0 16.4 0H39.6C48.6575 0 56 7.34253 56 16.4V39.6C56 48.6575 48.6575 56 39.6 56H16.4C7.34253 56 0 48.6575 0 39.6V16.4Z" fill="#077934"/>
<path d="M28 21.3334V40" stroke="white" stroke-width="2.66667" stroke-linecap="round" stroke-linejoin="round"/>
<path d="M16 36C15.6464 36 15.3072 35.8595 15.0572 35.6095C14.8071 35.3594 14.6667 35.0203 14.6667 34.6667V17.3333C14.6667 16.9797 14.8071 16.6406 15.0572 16.3905C15.3072 16.1405 15.6464 16 16 16H22.6667C24.0812 16 25.4377 16.5619 26.4379 17.5621C27.4381 18.5623 28 19.9188 28 21.3333C28 19.9188 28.5619 18.5623 29.5621 17.5621C30.5623 16.5619 31.9188 16 33.3333 16H40C40.3536 16 40.6928 16.1405 40.9428 16.3905C41.1929 16.6406 41.3333 16.9797 41.3333 17.3333V34.6667C41.3333 35.0203 41.1929 35.3594 40.9428 35.6095C40.6928 35.8595 40.3536 36 40 36H32C30.9391 36 29.9217 36.4214 29.1716 37.1716C28.4214 37.9217 28 38.9391 28 40C28 38.9391 27.5786 37.9217 26.8284 37.1716C26.0783 36.4214 25.0609 36 24 36H16Z" stroke="white" stroke-width="2.66667" stroke-linecap="round" stroke-linejoin="round"/>
</svg>
