<svg width="114" height="138" viewBox="0 0 114 138" fill="none" xmlns="http://www.w3.org/2000/svg">
<path d="M100.918 41.7327C99.5139 18.5259 80.3177 0.144625 56.8078 0H56.2877C47.9745 0.055625 40.2093 2.36128 33.5732 6.38575C27.439 10.0924 22.2868 15.2208 18.5517 21.3377C14.308 28.3075 12.0677 36.3122 12.0769 44.4722C12.0769 45.3983 12.1214 46.3273 12.1632 47.2395C12.6276 54.671 14.8888 61.5936 18.5517 67.5899C22.2633 73.6989 27.3835 78.8306 33.4842 82.5558C40.3541 86.6744 48.2029 88.8748 56.2126 88.9277H56.8801C80.4067 88.7692 99.5111 70.4296 100.977 47.2534C101.019 46.3551 101.091 45.415 101.091 44.5306C101.091 43.6295 101.091 42.6922 101.016 41.805L100.93 41.7188L100.918 41.7327ZM56.5908 57.9724V72.1679C56.9385 80.8454 54.4771 82.2916 51.5067 82.4223C51.376 82.4223 51.2592 82.4362 51.1285 82.4362C34.2407 80.0472 20.8824 66.661 18.5517 49.7288C18.3109 47.9813 18.1892 46.2195 18.1873 44.4555C18.1873 42.6755 18.3208 40.9205 18.5517 39.1962C20.8685 22.2945 34.1962 8.90556 51.0895 6.48866L51.5095 6.53316C54.4799 6.68891 56.9413 8.12403 56.5936 16.7709V30.9664C56.5491 36.8071 59.9089 42.3696 63.4716 44.4694C59.9089 46.5526 56.5491 51.4225 56.5936 57.9557L56.5908 57.9724Z" fill="#008032"/>
<path d="M56.5779 22.5L56.866 22.5059C58.3031 22.5626 59.6949 23.0386 60.8679 23.8779C62.1174 24.7721 63.0569 26.0338 63.5544 27.4873L64.1882 29.3311L64.1902 29.3359C65.3654 32.7789 68.02 35.508 71.4187 36.7773L71.7498 36.8955L71.7517 36.8965L73.5906 37.5254H73.5916C75.0461 38.0237 76.309 38.9638 77.2029 40.2148C78.0968 41.4659 78.5769 42.9654 78.5769 44.5029C78.5769 46.0404 78.0968 47.54 77.2029 48.791C76.3095 50.0413 75.047 50.98 73.5935 51.4785L71.7507 52.1133L71.7458 52.1152C68.1912 53.3283 65.3978 56.1178 64.1853 59.6738L64.1843 59.6758L63.5554 61.5146V61.5156C63.0569 62.97 62.116 64.2323 60.865 65.126C59.6139 66.0197 58.1144 66.5 56.5769 66.5C55.0394 66.5 53.54 66.0197 52.2888 65.126C51.0378 64.2323 50.0969 62.97 49.5984 61.5156V61.5146L48.9656 59.6748L48.9636 59.6699C48.3649 57.9162 47.3728 56.3221 46.0623 55.0117C44.7516 53.7013 43.1572 52.7091 41.4031 52.1104L41.4021 52.1094L39.5632 51.4805H39.5623C38.1078 50.9821 36.8448 50.042 35.9509 48.791C35.0571 47.54 34.5769 46.0405 34.5769 44.5029C34.5769 42.9654 35.0571 41.4659 35.9509 40.2148C36.8448 38.9638 38.1077 38.0237 39.5623 37.5254L41.4031 36.8926L41.408 36.8906C44.9626 35.6776 47.756 32.8881 48.9685 29.332L48.9695 29.3291L49.5984 27.4912C50.0956 26.0361 51.0353 24.7728 52.2859 23.8779C53.5372 22.9826 55.0373 22.5006 56.5759 22.5H56.5779Z" fill="#5F6561" stroke="#F7F9F8" stroke-width="5"/>
<path d="M8.79199 128.152C8.21332 128.152 7.76532 127.993 7.44799 127.676C7.14932 127.34 6.99999 126.882 6.99999 126.304V111.184H1.53998C1.05465 111.184 0.671984 111.053 0.391984 110.792C0.130651 110.512 -1.56315e-05 110.138 -1.56315e-05 109.672C-1.56315e-05 109.186 0.130651 108.822 0.391984 108.58C0.671984 108.318 1.05465 108.188 1.53998 108.188H16.044C16.5293 108.188 16.9027 108.318 17.164 108.58C17.444 108.822 17.584 109.186 17.584 109.672C17.584 110.138 17.444 110.512 17.164 110.792C16.9027 111.053 16.5293 111.184 16.044 111.184H10.584V126.304C10.584 126.882 10.4347 127.34 10.136 127.676C9.83732 127.993 9.38932 128.152 8.79199 128.152ZM21.6151 128.208C20.6258 128.208 19.7391 128.021 18.9551 127.648C18.1898 127.256 17.5831 126.733 17.1351 126.08C16.7058 125.426 16.4911 124.689 16.4911 123.868C16.4911 122.86 16.7524 122.066 17.2751 121.488C17.7978 120.89 18.6471 120.461 19.8231 120.2C20.9991 119.938 22.5764 119.808 24.5551 119.808H25.9551V121.824H24.5831C23.4258 121.824 22.5018 121.88 21.8111 121.992C21.1204 122.104 20.6258 122.3 20.3271 122.58C20.0471 122.841 19.9071 123.214 19.9071 123.7C19.9071 124.316 20.1218 124.82 20.5511 125.212C20.9804 125.604 21.5778 125.8 22.3431 125.8C22.9591 125.8 23.5004 125.66 23.9671 125.38C24.4524 125.081 24.8351 124.68 25.1151 124.176C25.3951 123.672 25.5351 123.093 25.5351 122.44V119.22C25.5351 118.286 25.3298 117.614 24.9191 117.204C24.5084 116.793 23.8178 116.588 22.8471 116.588C22.3058 116.588 21.7178 116.653 21.0831 116.784C20.4671 116.914 19.8138 117.138 19.1231 117.456C18.7684 117.624 18.4511 117.67 18.1711 117.596C17.9098 117.521 17.7044 117.372 17.5551 117.148C17.4058 116.905 17.3311 116.644 17.3311 116.364C17.3311 116.084 17.4058 115.813 17.5551 115.552C17.7044 115.272 17.9564 115.066 18.3111 114.936C19.1698 114.581 19.9911 114.329 20.7751 114.18C21.5778 114.03 22.3058 113.956 22.9591 113.956C24.3031 113.956 25.4044 114.161 26.2631 114.572C27.1404 114.982 27.7938 115.608 28.2231 116.448C28.6524 117.269 28.8671 118.333 28.8671 119.64V126.36C28.8671 126.938 28.7271 127.386 28.4471 127.704C28.1671 128.002 27.7658 128.152 27.2431 128.152C26.7204 128.152 26.3098 128.002 26.0111 127.704C25.7311 127.386 25.5911 126.938 25.5911 126.36V125.016H25.8151C25.6844 125.669 25.4231 126.238 25.0311 126.724C24.6578 127.19 24.1818 127.554 23.6031 127.816C23.0244 128.077 22.3618 128.208 21.6151 128.208ZM33.3716 128.068C32.9609 128.068 32.6156 127.956 32.3356 127.732C32.0743 127.489 31.9343 127.181 31.9156 126.808C31.9156 126.434 32.0743 126.042 32.3916 125.632L36.9276 120.032V121.684L32.6716 116.448C32.3356 116.037 32.1769 115.645 32.1956 115.272C32.2143 114.898 32.3543 114.6 32.6156 114.376C32.8956 114.133 33.2409 114.012 33.6516 114.012C34.0809 114.012 34.4356 114.086 34.7156 114.236C35.0143 114.385 35.2849 114.618 35.5276 114.936L38.8876 119.248H37.6556L41.0436 114.936C41.3049 114.618 41.5756 114.385 41.8556 114.236C42.1356 114.086 42.4809 114.012 42.8916 114.012C43.3209 114.012 43.6663 114.133 43.9276 114.376C44.1889 114.618 44.3196 114.926 44.3196 115.3C44.3383 115.673 44.1796 116.065 43.8436 116.476L39.6156 121.656V120.088L44.1516 125.632C44.4876 126.024 44.6463 126.406 44.6276 126.78C44.6089 127.153 44.4596 127.461 44.1796 127.704C43.9183 127.946 43.5729 128.068 43.1436 128.068C42.7329 128.068 42.3876 127.993 42.1076 127.844C41.8276 127.694 41.5569 127.461 41.2956 127.144L37.6556 122.552H38.8316L35.2196 127.144C34.9769 127.442 34.7156 127.676 34.4356 127.844C34.1556 127.993 33.8009 128.068 33.3716 128.068ZM49.8608 127.928C49.2821 127.928 48.8341 127.769 48.5168 127.452C48.1994 127.116 48.0408 126.658 48.0408 126.08V109.924C48.0408 109.326 48.1901 108.878 48.4888 108.58C48.8061 108.262 49.2541 108.104 49.8328 108.104C50.4114 108.104 50.8501 108.262 51.1488 108.58C51.4661 108.878 51.6248 109.326 51.6248 109.924V124.876H59.7448C60.2488 124.876 60.6314 125.006 60.8928 125.268C61.1728 125.529 61.3128 125.902 61.3128 126.388C61.3128 126.873 61.1728 127.256 60.8928 127.536C60.6314 127.797 60.2488 127.928 59.7448 127.928H49.8608ZM65.1634 128.124C64.6034 128.124 64.1741 127.956 63.8754 127.62C63.5768 127.284 63.4274 126.817 63.4274 126.22V115.944C63.4274 115.328 63.5768 114.861 63.8754 114.544C64.1741 114.208 64.6034 114.04 65.1634 114.04C65.7234 114.04 66.1528 114.208 66.4514 114.544C66.7688 114.861 66.9274 115.328 66.9274 115.944V126.22C66.9274 126.817 66.7781 127.284 66.4794 127.62C66.1808 127.956 65.7421 128.124 65.1634 128.124ZM65.1634 111.436C64.5101 111.436 63.9968 111.277 63.6234 110.96C63.2688 110.624 63.0914 110.166 63.0914 109.588C63.0914 108.99 63.2688 108.533 63.6234 108.216C63.9968 107.898 64.5101 107.74 65.1634 107.74C65.8354 107.74 66.3488 107.898 66.7034 108.216C67.0581 108.533 67.2354 108.99 67.2354 109.588C67.2354 110.166 67.0581 110.624 66.7034 110.96C66.3488 111.277 65.8354 111.436 65.1634 111.436ZM76.9481 133.248C75.9401 133.248 74.9601 133.154 74.0081 132.968C73.0748 132.781 72.2255 132.492 71.4601 132.1C71.1055 131.913 70.8628 131.689 70.7321 131.428C70.6201 131.166 70.5828 130.896 70.6201 130.616C70.6761 130.354 70.7881 130.121 70.9561 129.916C71.1428 129.71 71.3668 129.57 71.6281 129.496C71.8895 129.421 72.1601 129.458 72.4401 129.608C73.2615 130.018 74.0361 130.28 74.7641 130.392C75.5108 130.522 76.1455 130.588 76.6681 130.588C77.9188 130.588 78.8521 130.28 79.4681 129.664C80.1028 129.066 80.4201 128.17 80.4201 126.976V124.456H80.6721C80.3921 125.408 79.8041 126.173 78.9081 126.752C78.0308 127.312 77.0321 127.592 75.9121 127.592C74.6801 127.592 73.6068 127.312 72.6921 126.752C71.7775 126.173 71.0681 125.37 70.5641 124.344C70.0601 123.317 69.8081 122.122 69.8081 120.76C69.8081 119.733 69.9481 118.809 70.2281 117.988C70.5268 117.148 70.9375 116.429 71.4601 115.832C72.0015 115.234 72.6455 114.777 73.3921 114.46C74.1575 114.124 74.9975 113.956 75.9121 113.956C77.0695 113.956 78.0775 114.245 78.9361 114.824C79.8135 115.384 80.3828 116.13 80.6441 117.064L80.3641 117.764V115.776C80.3641 115.197 80.5135 114.758 80.8121 114.46C81.1295 114.161 81.5588 114.012 82.1001 114.012C82.6602 114.012 83.0895 114.161 83.3881 114.46C83.6868 114.758 83.8362 115.197 83.8362 115.776V126.556C83.8362 128.777 83.2481 130.448 82.0721 131.568C80.8961 132.688 79.1881 133.248 76.9481 133.248ZM76.8641 124.932C77.5921 124.932 78.2175 124.764 78.7401 124.428C79.2628 124.092 79.6641 123.616 79.9441 123C80.2428 122.365 80.3921 121.618 80.3921 120.76C80.3921 119.472 80.0748 118.464 79.4401 117.736C78.8055 116.989 77.9468 116.616 76.8641 116.616C76.1361 116.616 75.5108 116.784 74.9881 117.12C74.4655 117.456 74.0548 117.932 73.7561 118.548C73.4761 119.164 73.3361 119.901 73.3361 120.76C73.3361 122.048 73.6535 123.065 74.2881 123.812C74.9228 124.558 75.7815 124.932 76.8641 124.932ZM89.1986 128.152C88.6386 128.152 88.2093 128.002 87.9106 127.704C87.6119 127.386 87.4626 126.938 87.4626 126.36V109.728C87.4626 109.149 87.6119 108.71 87.9106 108.412C88.2093 108.113 88.6386 107.964 89.1986 107.964C89.7586 107.964 90.1879 108.113 90.4866 108.412C90.8039 108.71 90.9626 109.149 90.9626 109.728V116.98H90.5706C90.9813 115.99 91.6159 115.244 92.4746 114.74C93.3519 114.217 94.3413 113.956 95.4426 113.956C96.5439 113.956 97.4493 114.161 98.1586 114.572C98.8679 114.982 99.3999 115.608 99.7546 116.448C100.109 117.269 100.287 118.314 100.287 119.584V126.36C100.287 126.938 100.137 127.386 99.8386 127.704C99.5399 128.002 99.1106 128.152 98.5506 128.152C97.9906 128.152 97.5519 128.002 97.2346 127.704C96.9359 127.386 96.7866 126.938 96.7866 126.36V119.752C96.7866 118.688 96.5813 117.913 96.1706 117.428C95.7786 116.942 95.1626 116.7 94.3226 116.7C93.2959 116.7 92.4746 117.026 91.8586 117.68C91.2613 118.314 90.9626 119.164 90.9626 120.228V126.36C90.9626 127.554 90.3746 128.152 89.1986 128.152ZM110.113 128.208C108.9 128.208 107.883 128.002 107.061 127.592C106.259 127.181 105.661 126.584 105.269 125.8C104.877 124.997 104.681 124.008 104.681 122.832V116.868H103.225C102.777 116.868 102.432 116.756 102.189 116.532C101.947 116.289 101.825 115.962 101.825 115.552C101.825 115.122 101.947 114.796 102.189 114.572C102.432 114.348 102.777 114.236 103.225 114.236H104.681V111.688C104.681 111.109 104.831 110.67 105.129 110.372C105.447 110.073 105.885 109.924 106.445 109.924C107.005 109.924 107.435 110.073 107.733 110.372C108.032 110.67 108.181 111.109 108.181 111.688V114.236H111.149C111.597 114.236 111.943 114.348 112.185 114.572C112.428 114.796 112.549 115.122 112.549 115.552C112.549 115.962 112.428 116.289 112.185 116.532C111.943 116.756 111.597 116.868 111.149 116.868H108.181V122.636C108.181 123.532 108.377 124.204 108.769 124.652C109.161 125.1 109.796 125.324 110.673 125.324C110.991 125.324 111.271 125.296 111.513 125.24C111.756 125.184 111.971 125.146 112.157 125.128C112.381 125.109 112.568 125.184 112.717 125.352C112.867 125.501 112.941 125.818 112.941 126.304C112.941 126.677 112.876 127.013 112.745 127.312C112.633 127.592 112.419 127.788 112.101 127.9C111.859 127.974 111.541 128.04 111.149 128.096C110.757 128.17 110.412 128.208 110.113 128.208Z" fill="#5F6561"/>
</svg>
