<svg width="45" height="48" viewBox="0 0 45 48" fill="none" xmlns="http://www.w3.org/2000/svg">
<path d="M0 16.4C0 7.34253 7.34253 0 16.4 0H27.8578C36.9153 0 44.2578 7.34253 44.2578 16.4V31.6C44.2578 40.6575 36.9153 48 27.8578 48H16.4C7.34253 48 0 40.6575 0 31.6V16.4Z" fill="#077934" fill-opacity="0.08"/>
<path d="M30.125 25C30.125 30 26.625 32.5 22.465 33.95C22.2472 34.0238 22.0105 34.0203 21.795 33.94C17.625 32.5 14.125 30 14.125 25V18C14.125 17.7348 14.2304 17.4804 14.4179 17.2929C14.6054 17.1054 14.8598 17 15.125 17C17.125 17 19.625 15.8 21.365 14.28C21.5769 14.099 21.8464 13.9996 22.125 13.9996C22.4036 13.9996 22.6731 14.099 22.885 14.28C24.635 15.81 27.125 17 29.125 17C29.3902 17 29.6446 17.1054 29.8321 17.2929C30.0196 17.4804 30.125 17.7348 30.125 18V25Z" stroke="#077934" stroke-width="2" stroke-linecap="round" stroke-linejoin="round"/>
</svg>
