<svg width="56" height="56" viewBox="0 0 56 56" fill="none" xmlns="http://www.w3.org/2000/svg">
<path d="M0 16.4C0 7.34253 7.34253 0 16.4 0H39.6C48.6575 0 56 7.34253 56 16.4V39.6C56 48.6575 48.6575 56 39.6 56H16.4C7.34253 56 0 48.6575 0 39.6V16.4Z" fill="#14B8A6"/>
<path d="M35.9999 14.6666H19.9999C18.5272 14.6666 17.3333 15.8605 17.3333 17.3333V38.6666C17.3333 40.1394 18.5272 41.3333 19.9999 41.3333H35.9999C37.4727 41.3333 38.6666 40.1394 38.6666 38.6666V17.3333C38.6666 15.8605 37.4727 14.6666 35.9999 14.6666Z" stroke="white" stroke-width="2.66667" stroke-linecap="round" stroke-linejoin="round"/>
<path d="M22.6667 20H33.3334" stroke="white" stroke-width="2.66667" stroke-linecap="round" stroke-linejoin="round"/>
<path d="M33.3333 30.6666V36" stroke="white" stroke-width="2.66667" stroke-linecap="round" stroke-linejoin="round"/>
<path d="M33.3333 25.3334H33.3466" stroke="white" stroke-width="2.66667" stroke-linecap="round" stroke-linejoin="round"/>
<path d="M28 25.3334H28.0133" stroke="white" stroke-width="2.66667" stroke-linecap="round" stroke-linejoin="round"/>
<path d="M22.6667 25.3334H22.6801" stroke="white" stroke-width="2.66667" stroke-linecap="round" stroke-linejoin="round"/>
<path d="M28 30.6666H28.0133" stroke="white" stroke-width="2.66667" stroke-linecap="round" stroke-linejoin="round"/>
<path d="M22.6667 30.6666H22.6801" stroke="white" stroke-width="2.66667" stroke-linecap="round" stroke-linejoin="round"/>
<path d="M28 36H28.0133" stroke="white" stroke-width="2.66667" stroke-linecap="round" stroke-linejoin="round"/>
<path d="M22.6667 36H22.6801" stroke="white" stroke-width="2.66667" stroke-linecap="round" stroke-linejoin="round"/>
</svg>
