<svg width="56" height="56" viewBox="0 0 56 56" fill="none" xmlns="http://www.w3.org/2000/svg">
<path d="M0 16.4C0 7.34253 7.34253 0 16.4 0H39.6C48.6575 0 56 7.34253 56 16.4V39.6C56 48.6575 48.6575 56 39.6 56H16.4C7.34253 56 0 48.6575 0 39.6V16.4Z" fill="#077934"/>
<path d="M28 21.3333V39.9999" stroke="white" stroke-width="2.66667" stroke-linecap="round" stroke-linejoin="round"/>
<path d="M16.0001 36C15.6465 36 15.3073 35.8595 15.0573 35.6095C14.8072 35.3594 14.6667 35.0203 14.6667 34.6667V17.3333C14.6667 16.9797 14.8072 16.6406 15.0573 16.3905C15.3073 16.1405 15.6465 16 16.0001 16H22.6667C24.0812 16 25.4378 16.5619 26.438 17.5621C27.4382 18.5623 28.0001 19.9188 28.0001 21.3333C28.0001 19.9188 28.562 18.5623 29.5622 17.5621C30.5624 16.5619 31.9189 16 33.3334 16H40.0001C40.3537 16 40.6928 16.1405 40.9429 16.3905C41.1929 16.6406 41.3334 16.9797 41.3334 17.3333V34.6667C41.3334 35.0203 41.1929 35.3594 40.9429 35.6095C40.6928 35.8595 40.3537 36 40.0001 36H32.0001C30.9392 36 29.9218 36.4214 29.1717 37.1716C28.4215 37.9217 28.0001 38.9391 28.0001 40C28.0001 38.9391 27.5787 37.9217 26.8285 37.1716C26.0784 36.4214 25.0609 36 24.0001 36H16.0001Z" stroke="white" stroke-width="2.66667" stroke-linecap="round" stroke-linejoin="round"/>
</svg>
