<svg width="56" height="56" viewBox="0 0 56 56" fill="none" xmlns="http://www.w3.org/2000/svg">
<path d="M0 16.4C0 7.34253 7.34253 0 16.4 0H39.6C48.6575 0 56 7.34253 56 16.4V39.6C56 48.6575 48.6575 56 39.6 56H16.4C7.34253 56 0 48.6575 0 39.6V16.4Z" fill="#8B5CF6"/>
<path d="M40.56 26.5626C40.7987 26.4573 41.0012 26.2843 41.1426 26.065C41.2839 25.8457 41.3578 25.5898 41.3551 25.3289C41.3524 25.0681 41.2732 24.8137 41.1274 24.5974C40.9815 24.3811 40.7755 24.2123 40.5346 24.1119L29.1066 18.9066C28.7592 18.7481 28.3818 18.6661 28 18.6661C27.6181 18.6661 27.2407 18.7481 26.8933 18.9066L15.4666 24.1066C15.2293 24.2106 15.0273 24.3815 14.8855 24.5984C14.7437 24.8153 14.6682 25.0688 14.6682 25.3279C14.6682 25.5871 14.7437 25.8406 14.8855 26.0575C15.0273 26.2744 15.2293 26.4453 15.4666 26.5493L26.8933 31.7599C27.2407 31.9184 27.6181 32.0004 28 32.0004C28.3818 32.0004 28.7592 31.9184 29.1066 31.7599L40.56 26.5626Z" stroke="white" stroke-width="2.66667" stroke-linecap="round" stroke-linejoin="round"/>
<path d="M41.3333 25.3334V33.3334" stroke="white" stroke-width="2.66667" stroke-linecap="round" stroke-linejoin="round"/>
<path d="M20 28.6666V33.3333C20 34.3942 20.8429 35.4116 22.3431 36.1617C23.8434 36.9119 25.8783 37.3333 28 37.3333C30.1217 37.3333 32.1566 36.9119 33.6569 36.1617C35.1571 35.4116 36 34.3942 36 33.3333V28.6666" stroke="white" stroke-width="2.66667" stroke-linecap="round" stroke-linejoin="round"/>
</svg>
